<svg width="328" height="31" xmlns="http://www.w3.org/2000/svg"><path d="M.16 27.72C0 27.44 0 27.4 0 27.36c0-.16.16-.32.32-.48l1.4-1.32c.12-.12.24-.2.36-.2s.2.04.32.12c1.2.8 1.6 1.36 3.12 1.36 1.64 0 3.52-1.32 3.52-3.56V1.56c0-.28.12-.52.56-.6h2.12c.44 0 .64.32.64.64v21.68c0 4.16-3.4 6.8-6.84 6.8-2.12 0-4.12-.72-5.36-2.36zM30.92.48c8.12 0 14.76 6.64 14.76 14.76 0 8.12-6.64 14.76-14.76 14.76-8.16 0-14.76-6.64-14.76-14.76 0-8.12 6.6-14.76 14.76-14.76zm0 26.28c6.32 0 11.48-5.2 11.48-11.52 0-6.36-5.16-11.52-11.48-11.52-6.36 0-11.52 5.16-11.52 11.52 0 6.32 5.16 11.52 11.52 11.52zm23.68-21C54.36 6 53 8.12 53 9.68c0 1.04.36 2.12 1.08 3.08 1.96 2.6 4.32 4.48 4.32 8.36 0 4.64-3.6 8.76-8.44 9.04-.44 0-.64-.32-.64-.72v-1.76c0-.36.28-.6.64-.64 2.84-.36 5.32-3.4 5.32-6.2 0-3.24-3.36-5.08-4.64-7.68-.6-1.2-.88-2.44-.88-3.64 0-4.56 3.76-8.84 8.64-9.08.44 0 .64.32.64.72V3c0 .4-.28.56-.64.6-1.52.2-2.8 1.04-3.8 2.16zM64.16 30c-.44 0-.64-.2-.64-.64V1.92c0-.4.24-.56.64-.56h18.92c.4 0 .6.2.6.6v2c0 .48-.2.72-.64.72H66.88v4.8h12.84c.36 0 .6.32.6.68v2c0 .36-.24.68-.6.68H66.88v4.96h12.84c.36 0 .6.28.6.64v2.04c0 .32-.24.68-.6.68H66.88v5.52h16.04c.4 0 .72.24.72.68v1.96c0 .44-.24.68-.68.68h-18.8zM90.04 1.36h9.68c5.2 0 8.52 3.96 8.52 8.88 0 4.6-3.4 9.12-8.68 9.12H90.8V29.4c0 .4-.2.6-.64.6h-2.04c-.44 0-.64-.2-.64-.6V16.76c0-.4.28-.68.64-.68l11.56.04c2.88-.2 5.32-2.88 5.32-5.72 0-2.96-2.48-5.76-5.52-5.76h-9.44c-.4 0-.64-.28-.64-.6v-2c0-.4.28-.68.64-.68zm42.44.16c.12-.12.28-.16.48-.16h2c.36 0 .68.24.68.6V29.4c0 .44-.28.6-.68.6h-2c-.44 0-.64-.2-.64-.6v-8.24h-16.96v8.24c0 .4-.24.6-.68.6h-2.04c-.4 0-.6-.2-.6-.6V1.96c0-.4.28-.6.6-.6h2.08c.32 0 .64.24.64.6v7.56h16.96V1.96c0-.16.04-.32.16-.44zm-.16 16.28v-4.96h-16.96v4.96h16.96zm39.64-6.68l3.84-9.28c.2-.44.36-.48.8-.48h1.28c.44 0 .6.04.76.48L190 29.12c.04.12.08.24.08.36 0 .32-.24.52-.64.52h-2.04c-.8 0-.88-.56-1.64-2.56l-8.52-20.92-8.52 20.92c-.8 2-.84 2.56-1.64 2.56h-2.04c-.44 0-.68-.2-.68-.52 0-.12.04-.24.08-.36l5.8-13.88c-1.2-2.92-2.4-5.84-3.52-8.76l-8.52 20.96c-.8 2-.88 2.56-1.64 2.56h-2.04c-.44 0-.68-.2-.68-.52 0-.12 0-.24.08-.36L165.28 1.8c.16-.36.36-.44.76-.44h1.28c.44 0 .6 0 .8.48l3.84 9.28zm23.92 11.6c-1.76-3-2.36-6.56-1.8-10 .84-4.88 4.2-9.08 8.8-11.04 4.76-2 10.28-1.4 14.44 1.64.44.32.52.52.32.88l-1 1.64c-.32.48-.72.6-1.12.24-1.84-1.44-4.12-2.04-6.44-2.2-4.64 0-9.04 2.64-10.96 6.96-2 4.52-.76 10 3.08 13.16 3.8 3.2 9.32 3.44 14.32.28.44-.28.64-.32.96.2 0 0 1.08 1.8 1.12 1.88.2.36-.08.64-.4.88-3.36 2.48-7.72 3.32-11.8 2.4-4-.88-7.48-3.4-9.52-6.92zM222.2 30c-.36 0-.64-.16-.64-.56V2.04c0-.44.2-.68.64-.68h9.2c7.92 0 14.44 6.28 14.44 14.36 0 8.24-6.88 14.28-14.44 14.28h-9.2zm2.64-25.36v22.08h6.44c6.4 0 11.24-5.08 11.24-11.32 0-6.4-5.12-10.76-11.12-10.76h-6.56zm38.56-2.8s11.76 27.16 11.76 27.2c.12.28.12.36.12.48 0 .32-.24.48-.68.48h-24.2c-.44 0-.76-.24-.76-.6 0-.12 0-.24.08-.36l11.92-27.2c.2-.4.4-.52.84-.52h.12c.52 0 .6.12.8.52zm-.88 5.72L254.4 26.6h16.2l-8.08-19.04zM279.72 30c-.36 0-.64-.16-.64-.56V2.04c0-.44.2-.68.64-.68h9.2c7.92 0 14.44 6.28 14.44 14.36 0 8.24-6.88 14.28-14.44 14.28h-9.2zm2.64-25.36v22.08h6.44c6.4 0 11.24-5.08 11.24-11.32 0-6.4-5.12-10.76-11.12-10.76h-6.56zM307.8 30c-.44 0-.64-.2-.64-.64V1.92c0-.4.24-.56.64-.56h18.92c.4 0 .6.2.6.6v2c0 .48-.2.72-.64.72h-16.16v4.8h12.84c.36 0 .6.32.6.68v2c0 .36-.24.68-.6.68h-12.84v4.96h12.84c.36 0 .6.28.6.64v2.04c0 .32-.24.68-.6.68h-12.84v5.52h16.04c.4 0 .72.24.72.68v1.96c0 .44-.24.68-.68.68h-18.8z" fill="#FFFEBE" fill-rule="evenodd"/></svg>