<svg xmlns="http://www.w3.org/2000/svg" width="209" height="26">
  <g fill="none" fill-rule="evenodd">
    <path fill="currentColor" d="M30.384,22.312 C31.2000041,22.2159995 31.8639974,21.6400053 32.376,20.584 C32.9040026,19.5119946 33.4079976,17.7440123 33.888,15.28 L36.216,3.16 L41.424,3.16 L39.096,15.28 C38.503997,18.4160157 37.7200049,20.5999938 36.744,21.832 C36.2319974,22.4720032 35.6520032,22.9199987 35.004,23.176 C34.3559968,23.4320013 33.6800035,23.56 32.976,23.56 C32.2719965,23.56 31.6920023,23.4320013 31.236,23.176 C30.7799977,22.9199987 30.4960006,22.6320016 30.384,22.312 Z M47.184,19.48 C43.6639824,19.48 41.904,17.8240166 41.904,14.512 C41.904,12.1599882 42.5519935,10.2240076 43.848,8.704 C45.2240069,7.08799192 47.1039881,6.28 49.488,6.28 C51.2160086,6.28 52.5199956,6.679996 53.4,7.48 C54.2800044,8.280004 54.72,9.5199916 54.72,11.2 C54.72,13.7600128 54.0320069,15.7839926 52.656,17.272 C51.3119933,18.7440074 49.4880115,19.48 47.184,19.48 Z M47.808,9.04 C47.615999,9.47200216 47.4440008,10.0119968 47.292,10.66 C47.1399992,11.3080032 46.968001,12.1439949 46.776,13.168 C46.583999,14.1920051 46.488,15.3359937 46.488,16.6 C46.488,17.0160021 46.5559993,17.3599986 46.692,17.632 C46.8280007,17.9040014 47.0799982,18.04 47.448,18.04 C47.8160018,18.04 48.1159988,17.9520009 48.348,17.776 C48.5800012,17.5999991 48.7839991,17.3040021 48.96,16.888 C49.2800016,16.1519963 49.5679987,15.1000068 49.824,13.732 C50.0800013,12.3639932 50.2199999,11.384003 50.244,10.792 C50.2680001,10.199997 50.28,9.6840022 50.28,9.244 C50.28,8.8039978 50.2160006,8.44000144 50.088,8.152 C49.9599994,7.86399856 49.7160018,7.72 49.356,7.72 C48.9959982,7.72 48.6960012,7.83199888 48.456,8.056 C48.2159988,8.28000112 48.000001,8.60799784 47.808,9.04 Z M63.312,10.576 C63.5360011,9.98399704 63.648,9.43200256 63.648,8.92 C63.648,7.97599528 63.2640038,7.504 62.496,7.504 C62.095998,7.504 61.7320016,7.6839982 61.404,8.044 C61.0759984,8.4040018 60.912,8.80799776 60.912,9.256 C60.912,9.5760016 61.0399987,9.86399872 61.296,10.12 C61.6640018,10.4720018 62.3199953,10.9359971 63.264,11.512 C64.2080047,12.0880029 64.8599982,12.6119976 65.22,13.084 C65.5800018,13.5560024 65.76,14.1159968 65.76,14.764 C65.76,15.4120032 65.6040016,16.031997 65.292,16.624 C64.9799984,17.216003 64.5440028,17.7199979 63.984,18.136 C62.783994,19.0320045 61.2240096,19.48 59.304,19.48 C58.2639948,19.48 57.344004,19.2080027 56.544,18.664 C55.743996,18.1359974 55.344,17.5600031 55.344,16.936 C55.344,16.3119969 55.5719977,15.8160018 56.028,15.448 C56.4840023,15.0799982 57.0479966,14.896 57.72,14.896 C58.3920034,14.896 58.9359979,15.0239987 59.352,15.28 C59.143999,15.8080026 59.04,16.2479982 59.04,16.6 C59.04,17.6560053 59.4879955,18.184 60.384,18.184 C60.7680019,18.184 61.0879987,18.0640012 61.344,17.824 C61.6000013,17.5839988 61.728,17.2560021 61.728,16.84 C61.728,16.0239959 61.0400069,15.1840043 59.664,14.32 C58.5439944,13.5839963 57.8560013,13.0720014 57.6,12.784 C57.1679978,12.2719974 56.952,11.6960032 56.952,11.056 C56.952,10.4159968 57.1039985,9.79200304 57.408,9.184 C57.7120015,8.57599696 58.1439972,8.05600216 58.704,7.624 C59.8720058,6.72799552 61.4719898,6.28 63.504,6.28 C64.5440052,6.28 65.3719969,6.48799792 65.988,6.904 C66.6040031,7.32000208 66.912,7.87999648 66.912,8.584 C66.912,9.28800352 66.7000021,9.839998 66.276,10.24 C65.8519979,10.640002 65.2560038,10.84 64.488,10.84 C63.9599974,10.84 63.5680013,10.7520009 63.312,10.576 Z M77.52,14.944 C77.920002,15.2160014 78.12,15.651997 78.12,16.252 C78.12,16.852003 77.9680015,17.3439981 77.664,17.728 C77.3599985,18.1120019 76.9600025,18.4319987 76.464,18.688 C75.4399949,19.2160026 74.3760055,19.48 73.272,19.48 C72.1679945,19.48 71.2920032,19.3600012 70.644,19.12 C69.9959968,18.8799988 69.4560022,18.5360022 69.024,18.088 C68.1759958,17.2399958 67.752,16.0400078 67.752,14.488 C67.752,12.0719879 68.4079934,10.1280074 69.72,8.656 C71.128007,7.07199208 73.0559878,6.28 75.504,6.28 C77.0240076,6.28 78.1599962,6.5999968 78.912,7.24 C79.4720028,7.7200024 79.752,8.35199608 79.752,9.136 C79.752,11.9520141 77.3200243,13.36 72.456,13.36 C72.3919997,13.7760021 72.36,14.1599982 72.36,14.512 C72.36,15.2480037 72.5239984,15.7559986 72.852,16.036 C73.1800016,16.3160014 73.647997,16.456 74.256,16.456 C74.864003,16.456 75.4919968,16.3160014 76.14,16.036 C76.7880032,15.7559986 77.2479986,15.3920022 77.52,14.944 Z M72.624,12.328 C73.7600057,12.328 74.6559967,11.9760035 75.312,11.272 C75.9680033,10.5999966 76.296,9.72800536 76.296,8.656 C76.296,8.28799816 76.2280007,8.004001 76.092,7.804 C75.9559993,7.603999 75.7520014,7.504 75.48,7.504 C75.2079986,7.504 74.9560012,7.55599948 74.724,7.66 C74.4919988,7.76400052 74.2560012,7.99199824 74.016,8.344 C73.423997,9.144004 72.9600017,10.4719907 72.624,12.328 Z M91.752,17.368 C91.0799966,18.0400034 90.2840046,18.5599982 89.364,18.928 C88.4439954,19.2960018 87.5280046,19.48 86.616,19.48 C85.7039954,19.48 85.0880016,19.4000008 84.768,19.24 L84.024,23.32 L79.152,23.8 L82.464,6.76 L86.376,6.352 L86.064,8.008 C86.7360034,6.87199432 87.767993,6.304 89.16,6.304 C90.7280078,6.304 91.9279958,6.80799496 92.76,7.816 C93.4960037,8.72800456 93.864,9.87999304 93.864,11.272 C93.864,12.664007 93.6800018,13.855995 93.312,14.848 C92.9439982,15.840005 92.4240034,16.6799966 91.752,17.368 Z M85.056,17.656 C85.3920017,17.9440014 85.7679979,18.088 86.184,18.088 C86.6000021,18.088 86.9279988,18.0080008 87.168,17.848 C87.4080012,17.6879992 87.6159991,17.4480016 87.792,17.128 C88.2720024,16.2639957 88.7039981,14.5200131 89.088,11.896 C89.2000006,11.1279962 89.256,10.3680038 89.256,9.616 C89.256,8.86399624 89.1720008,8.3680012 89.004,8.128 C88.8359992,7.8879988 88.5920016,7.768 88.272,7.768 C87.2959951,7.768 86.6480016,8.71999048 86.328,10.624 L85.056,17.656 Z M107.376,16.336 C107.376,17.0400035 107.735996,17.495999 108.456,17.704 C108.279999,18.296003 107.848003,18.7519984 107.16,19.072 C106.583997,19.3440014 105.980003,19.48 105.348,19.48 C104.715997,19.48 104.236002,19.3960008 103.908,19.228 C103.579998,19.0599992 103.328001,18.8400014 103.152,18.568 C102.863999,18.1519979 102.72,17.5520039 102.72,16.768 C102.72,16.3039977 102.847999,15.4320064 103.104,14.152 L103.44,12.328 C103.712001,10.935993 103.848,9.98400256 103.848,9.472 C103.848,8.57599552 103.600002,8.128 103.104,8.128 C102.479997,8.128 101.968002,8.58399544 101.568,9.496 C101.407999,9.84800176 101.272001,10.2879974 101.16,10.816 L99.528,19 L94.704,19.48 L98.088,2.2 L102.912,1.72 L102.72,2.68 C102.271998,5.14401232 101.856002,6.79199584 101.472,7.624 C102.368004,6.72799552 103.639992,6.28 105.288,6.28 C107.032009,6.28 108.063998,6.85599424 108.384,8.008 C108.496001,8.37600184 108.552,8.7199984 108.552,9.04 C108.552,9.3600016 108.54,9.64399876 108.516,9.892 C108.492,10.1400012 108.44,10.4879978 108.36,10.936 L108.048,12.664 L107.496,15.376 C107.416,15.7440018 107.376,16.0639986 107.376,16.336 Z M114.624,19 L118.968,3.16 L123.984,3.16 L125.088,12.208 L129.552,3.16 L133.752,3.16 L134.184,15.016 C134.248,16.5840078 134.663996,17.6079976 135.432,18.088 C135.255999,18.4080016 134.912003,18.7199985 134.4,19.024 C133.887997,19.3280015 133.292003,19.48 132.612,19.48 C131.931997,19.48 131.392002,19.384001 130.992,19.192 C130.591998,18.999999 130.280001,18.7440016 130.056,18.424 C129.655998,17.8479971 129.456,17.0080055 129.456,15.904 L129.456,8.488 L124.728,19 L121.752,19 L120.072,8.224 L117.384,19 L114.624,19 Z M148.248,9.016 C148.248,9.68800336 147.968003,10.2319979 147.408,10.648 C146.847997,11.0640021 146.112005,11.272 145.2,11.272 C144.815998,11.272 144.512001,11.2160006 144.288,11.104 C144.464001,10.6879979 144.58,10.2200026 144.636,9.7 C144.692,9.1799974 144.72,8.84800072 144.72,8.704 C144.72,8.03199664 144.488002,7.696 144.024,7.696 C143.703998,7.696 143.364002,7.895998 143.004,8.296 C142.643998,8.696002 142.312002,9.20799688 142.008,9.832 C141.335997,11.2720072 141,12.7199927 141,14.176 C141,14.976004 141.151998,15.5559982 141.456,15.916 C141.760002,16.2760018 142.247997,16.456 142.92,16.456 C143.848005,16.456 144.679996,16.0720038 145.416,15.304 C145.624001,15.0639988 145.783999,14.8080014 145.896,14.536 C146.504003,14.8560016 146.808,15.4559956 146.808,16.336 C146.808,17.2320045 146.312005,17.975997 145.32,18.568 C144.295995,19.176003 142.968008,19.48 141.336,19.48 C138.087984,19.48 136.464,17.7600172 136.464,14.32 C136.464,11.8079874 137.175993,9.8320072 138.6,8.392 C139.976007,6.98399296 141.927987,6.28 144.456,6.28 C146.984013,6.28 148.248,7.19199088 148.248,9.016 Z M164.472,9.04 C164.472,15.8560341 160.776037,19.264 153.384,19.264 C152.199994,19.264 150.63201,19.1200014 148.68,18.832 L151.368,4.648 C151.496001,4.0079968 151.6,3.50400184 151.68,3.136 C154.112012,2.95999912 155.867995,2.872 156.948,2.872 C158.028005,2.872 159.063995,2.98399888 160.056,3.208 C161.048005,3.43200112 161.871997,3.79199752 162.528,4.288 C163.824006,5.26400488 164.472,6.84798904 164.472,9.04 Z M159.528,8.152 C159.528,5.76798808 158.672009,4.576 156.96,4.576 L156.72,4.576 C156.64,4.576 156.56,4.58399992 156.48,4.6 L154.008,17.488 C154.072,17.5200002 154.136,17.536 154.2,17.536 L154.392,17.536 C154.984003,17.536 155.587997,17.3520018 156.204,16.984 C156.820003,16.6159982 157.367998,16.0560038 157.848,15.304 C158.968006,13.5599913 159.528,11.1760151 159.528,8.152 Z M166.728,18.28 C166.359998,17.8639979 166.092001,17.3280033 165.924,16.672 C165.755999,16.0159967 165.672,15.1520054 165.672,14.08 C165.672,13.0079946 165.855998,11.9840049 166.224,11.008 C166.592002,10.0319951 167.111997,9.19200352 167.784,8.488 C169.160007,7.01599264 170.983989,6.28 173.256,6.28 C174.072004,6.28 174.775997,6.41599864 175.368,6.688 L179.472,6.28 L177.696,15.64 C177.648,15.832001 177.624,16.1039982 177.624,16.456 C177.624,16.8080018 177.731999,17.0959989 177.948,17.32 C178.164001,17.5440011 178.431998,17.6719998 178.752,17.704 C178.591999,18.2480027 178.220003,18.6799984 177.636,19 C177.051997,19.3200016 176.432003,19.48 175.776,19.48 C175.119997,19.48 174.572002,19.3560012 174.132,19.108 C173.691998,18.8599988 173.408001,18.5280021 173.28,18.112 C173.023999,18.512002 172.624003,18.8399987 172.08,19.096 C171.535997,19.3520013 170.900004,19.48 170.172,19.48 C169.443996,19.48 168.784003,19.384001 168.192,19.192 C167.599997,18.999999 167.112002,18.6960021 166.728,18.28 Z M171.792,8.536 C171.615999,8.82400144 171.448001,9.21199756 171.288,9.7 C171.127999,10.1880024 170.916001,11.0839935 170.652,12.388 C170.387999,13.6920065 170.256,14.8079954 170.256,15.736 C170.256,16.6640046 170.327999,17.2639986 170.472,17.536 C170.616001,17.8080014 170.815999,17.944 171.072,17.944 C171.584003,17.944 172.027998,17.7000024 172.404,17.212 C172.780002,16.7239976 173.039999,16.0480043 173.184,15.184 L174.456,8.152 C174.119998,7.86399856 173.756002,7.72 173.364,7.72 C172.971998,7.72 172.660001,7.78399936 172.428,7.912 C172.195999,8.04000064 171.984001,8.24799856 171.792,8.536 Z M188.328,6.28 C188.904003,6.28 189.415998,6.34399936 189.864,6.472 C189.88,6.40799968 189.904,6.28800088 189.936,6.112 L190.056,5.368 C190.12,5.0479984 190.2,4.62400264 190.296,4.096 L190.68,2.2 L195.456,1.72 L192.792,15.64 C192.776,15.7360005 192.768,15.8639992 192.768,16.024 L192.768,16.408 C192.768,16.7600018 192.855999,17.0679987 193.032,17.332 C193.208001,17.5960013 193.439999,17.728 193.728,17.728 C193.407998,18.4800038 192.760005,19.0159984 191.784,19.336 C191.447998,19.4320005 191.044002,19.48 190.572,19.48 C190.099998,19.48 189.648002,19.3560012 189.216,19.108 C188.783998,18.8599988 188.504001,18.5280021 188.376,18.112 C188.119999,18.5280021 187.736003,18.8599988 187.224,19.108 C186.711997,19.3560012 186.084004,19.48 185.34,19.48 C184.595996,19.48 183.916003,19.384001 183.3,19.192 C182.683997,18.999999 182.184002,18.6960021 181.8,18.28 C181.095996,17.4639959 180.744,16.1280093 180.744,14.272 C180.744,11.871988 181.447993,9.94400728 182.856,8.488 C184.264007,7.01599264 186.087989,6.28 188.328,6.28 Z M188.16,7.72 C187.567997,7.72 187.112002,8.0399968 186.792,8.68 C186.471998,9.3200032 186.148002,10.4319921 185.82,12.016 C185.491998,13.6000079 185.328,15.1039929 185.328,16.528 C185.328,17.5040049 185.615997,17.992 186.192,17.992 C186.704003,17.992 187.139998,17.7360026 187.5,17.224 C187.860002,16.7119974 188.111999,16.0320042 188.256,15.184 L189.552,8.152 C189.215998,7.86399856 188.752003,7.72 188.16,7.72 Z M205.488,14.944 C205.888002,15.2160014 206.088,15.651997 206.088,16.252 C206.088,16.852003 205.936002,17.3439981 205.632,17.728 C205.327998,18.1120019 204.928002,18.4319987 204.432,18.688 C203.407995,19.2160026 202.344006,19.48 201.24,19.48 C200.135994,19.48 199.260003,19.3600012 198.612,19.12 C197.963997,18.8799988 197.424002,18.5360022 196.992,18.088 C196.143996,17.2399958 195.72,16.0400078 195.72,14.488 C195.72,12.0719879 196.375993,10.1280074 197.688,8.656 C199.096007,7.07199208 201.023988,6.28 203.472,6.28 C204.992008,6.28 206.127996,6.5999968 206.88,7.24 C207.440003,7.7200024 207.72,8.35199608 207.72,9.136 C207.72,11.9520141 205.288024,13.36 200.424,13.36 C200.36,13.7760021 200.328,14.1599982 200.328,14.512 C200.328,15.2480037 200.491998,15.7559986 200.82,16.036 C201.148002,16.3160014 201.615997,16.456 202.224,16.456 C202.832003,16.456 203.459997,16.3160014 204.108,16.036 C204.756003,15.7559986 205.215999,15.3920022 205.488,14.944 Z M200.592,12.328 C201.728006,12.328 202.623997,11.9760035 203.28,11.272 C203.936003,10.5999966 204.264,9.72800536 204.264,8.656 C204.264,8.28799816 204.196001,8.004001 204.06,7.804 C203.923999,7.603999 203.720001,7.504 203.448,7.504 C203.175999,7.504 202.924001,7.55599948 202.692,7.66 C202.459999,7.76400052 202.224001,7.99199824 201.984,8.344 C201.391997,9.144004 200.928002,10.4719907 200.592,12.328 Z" transform="translate(1 1)"/>
    <path fill="#000000" fill-rule="nonzero" d="M12.2034712,2.06896552 C12.2034712,2.29737931 12.0212339,2.48275862 11.7966915,2.48275862 C11.5721492,2.48275862 11.3899119,2.29737931 11.3899119,2.06896552 C11.3899119,1.84055172 11.5721492,1.65517241 11.7966915,1.65517241 C12.0212339,1.65517241 12.2034712,1.84055172 12.2034712,2.06896552" transform="translate(1 1)"/>
    <path fill="#000000" fill-rule="nonzero" d="M10.1695729,2.89655172 C10.1695729,3.12496552 9.98733559,3.31034483 9.76279322,3.31034483 C9.53825085,3.31034483 9.35601356,3.12496552 9.35601356,2.89655172 C9.35601356,2.66813793 9.53825085,2.48275862 9.76279322,2.48275862 C9.98733559,2.48275862 10.1695729,2.66813793 10.1695729,2.89655172" transform="translate(1 1)"/>
    <path fill="#000000" fill-rule="nonzero" d="M14.2373695,2.89655172 C14.2373695,3.12496552 14.0551322,3.31034483 13.8305898,3.31034483 C13.6060475,3.31034483 13.4238102,3.12496552 13.4238102,2.89655172 C13.4238102,2.66813793 13.6060475,2.48275862 13.8305898,2.48275862 C14.0551322,2.48275862 14.2373695,2.66813793 14.2373695,2.89655172" transform="translate(1 1)"/>
    <path stroke="currentColor" stroke-linecap="round" stroke-linejoin="round" stroke-width="2" d="M11.7966915,23.9997103 C15.8644881,24.0084 21.8901153,13.0842621 23.3455729,8.52798621 C24.1656407,5.9604 23.0852339,3.14950345 20.7458441,1.8746069 C18.6139119,0.712675862 15.1786576,0.000124137931 11.7966915,0.000124137931 C8.43303051,0.000124137931 5.02828475,0.704813793 2.89879322,1.85515862 C0.534589831,3.13253793 -0.553138983,5.97695172 0.275877966,8.56605517 C1.74028475,13.1380552 7.72889492,24.0001241 11.7966915,23.9997103 Z" transform="translate(1 1)"/>
    <path stroke="currentColor" stroke-linecap="round" stroke-linejoin="round" stroke-width="2" d="M22.3876068,10.985669 L0.0501152542,6.06194483 C-0.0564610169,6.88332414 0.0106576271,7.7373931 0.275877966,8.56622069 C0.375132203,8.87573793 0.496759322,9.21628966 0.635471186,9.57835862 L20.8910644,14.0427724 C21.4605559,12.9764276 21.9674034,11.9361517 22.3876068,10.985669 Z" transform="translate(1 1)"/>
  </g>
</svg>
