<svg xmlns="http://www.w3.org/2000/svg" width="209" height="26"><g fill="none" fill-rule="evenodd"><path fill="currentColor" d="M31.384 23.312c.816-.096 1.48-.672 1.992-1.728.528-1.072 1.032-2.84 1.512-5.304l2.328-12.12h5.208l-2.328 12.12c-.592 3.136-1.376 5.32-2.352 6.552-.512.64-1.092 1.088-1.74 1.344a5.47 5.47 0 0 1-2.028.384c-.704 0-1.284-.128-1.74-.384-.456-.256-.74-.544-.852-.864zm16.8-2.832c-3.52 0-5.28-1.656-5.28-4.968 0-2.352.648-4.288 1.944-5.808 1.376-1.616 3.256-2.424 5.64-2.424 1.728 0 3.032.4 3.912 1.2.88.8 1.32 2.04 1.32 3.72 0 2.56-.688 4.584-2.064 6.072-1.344 1.472-3.168 2.208-5.472 2.208zm.624-10.44c-.192.432-.364.972-.516 1.62a59.005 59.005 0 0 0-.516 2.508c-.192 1.024-.288 2.168-.288 3.432 0 .416.068.76.204 1.032.136.272.388.408.756.408s.668-.088.9-.264c.232-.176.436-.472.612-.888.32-.736.608-1.788.864-3.156s.396-2.348.42-2.94c.024-.592.036-1.108.036-1.548 0-.44-.064-.804-.192-1.092-.128-.288-.372-.432-.732-.432s-.66.112-.9.336c-.24.224-.456.552-.648.984zm15.504 1.536c.224-.592.336-1.144.336-1.656 0-.944-.384-1.416-1.152-1.416-.4 0-.764.18-1.092.54-.328.36-.492.764-.492 1.212 0 .32.128.608.384.864.368.352 1.024.816 1.968 1.392s1.596 1.1 1.956 1.572c.36.472.54 1.032.54 1.68 0 .648-.156 1.268-.468 1.86a4.458 4.458 0 0 1-1.308 1.512c-1.2.896-2.76 1.344-4.68 1.344-1.04 0-1.96-.272-2.76-.816-.8-.528-1.2-1.104-1.2-1.728 0-.624.228-1.12.684-1.488.456-.368 1.02-.552 1.692-.552.672 0 1.216.128 1.632.384-.208.528-.312.968-.312 1.32 0 1.056.448 1.584 1.344 1.584.384 0 .704-.12.96-.36s.384-.568.384-.984c0-.816-.688-1.656-2.064-2.52-1.12-.736-1.808-1.248-2.064-1.536-.432-.512-.648-1.088-.648-1.728 0-.64.152-1.264.456-1.872a4.49 4.49 0 0 1 1.296-1.56c1.168-.896 2.768-1.344 4.8-1.344 1.04 0 1.868.208 2.484.624.616.416.924.976.924 1.68s-.212 1.256-.636 1.656c-.424.4-1.02.6-1.788.6-.528 0-.92-.088-1.176-.264zm14.208 4.368c.4.272.6.708.6 1.308 0 .6-.152 1.092-.456 1.476a3.617 3.617 0 0 1-1.2.96 6.88 6.88 0 0 1-3.192.792c-1.104 0-1.98-.12-2.628-.36-.648-.24-1.188-.584-1.62-1.032-.848-.848-1.272-2.048-1.272-3.6 0-2.416.656-4.36 1.968-5.832 1.408-1.584 3.336-2.376 5.784-2.376 1.52 0 2.656.32 3.408.96.56.48.84 1.112.84 1.896 0 2.816-2.432 4.224-7.296 4.224-.064.416-.096.8-.096 1.152 0 .736.164 1.244.492 1.524.328.28.796.42 1.404.42.608 0 1.236-.14 1.884-.42.648-.28 1.108-.644 1.38-1.092zm-4.896-2.616c1.136 0 2.032-.352 2.688-1.056.656-.672.984-1.544.984-2.616 0-.368-.068-.652-.204-.852-.136-.2-.34-.3-.612-.3-.272 0-.524.052-.756.156-.232.104-.468.332-.708.684-.592.8-1.056 2.128-1.392 3.984zm19.128 5.04a7.024 7.024 0 0 1-2.388 1.56 7.354 7.354 0 0 1-2.748.552c-.912 0-1.528-.08-1.848-.24l-.744 4.08-4.872.48 3.312-17.04 3.912-.408-.312 1.656c.672-1.136 1.704-1.704 3.096-1.704 1.568 0 2.768.504 3.6 1.512.736.912 1.104 2.064 1.104 3.456s-.184 2.584-.552 3.576c-.368.992-.888 1.832-1.56 2.52zm-6.696.288a1.69 1.69 0 0 0 1.128.432c.416 0 .744-.08.984-.24.24-.16.448-.4.624-.72.48-.864.912-2.608 1.296-5.232.112-.768.168-1.528.168-2.28 0-.752-.084-1.248-.252-1.488-.168-.24-.412-.36-.732-.36-.976 0-1.624.952-1.944 2.856l-1.272 7.032zm22.32-1.32c0 .704.36 1.16 1.08 1.368-.176.592-.608 1.048-1.296 1.368a4.194 4.194 0 0 1-1.812.408c-.632 0-1.112-.084-1.44-.252a1.914 1.914 0 0 1-.756-.66c-.288-.416-.432-1.016-.432-1.8 0-.464.128-1.336.384-2.616l.336-1.824c.272-1.392.408-2.344.408-2.856 0-.896-.248-1.344-.744-1.344-.624 0-1.136.456-1.536 1.368-.16.352-.296.792-.408 1.32L100.528 20l-4.824.48L99.088 3.2l4.824-.48-.192.96c-.448 2.464-.864 4.112-1.248 4.944.896-.896 2.168-1.344 3.816-1.344 1.744 0 2.776.576 3.096 1.728.112.368.168.712.168 1.032 0 .32-.012.604-.036.852-.024.248-.076.596-.156 1.044l-.312 1.728-.552 2.712c-.08.368-.12.688-.12.96zM115.624 20l4.344-15.84h5.016l1.104 9.048 4.464-9.048h4.2l.432 11.856c.064 1.568.48 2.592 1.248 3.072-.176.32-.52.632-1.032.936-.512.304-1.108.456-1.788.456-.68 0-1.22-.096-1.62-.288a2.357 2.357 0 0 1-.936-.768c-.4-.576-.6-1.416-.6-2.52V9.488L125.728 20h-2.976l-1.68-10.776L118.384 20h-2.76zm33.624-9.984c0 .672-.28 1.216-.84 1.632-.56.416-1.296.624-2.208.624-.384 0-.688-.056-.912-.168.176-.416.292-.884.348-1.404.056-.52.084-.852.084-.996 0-.672-.232-1.008-.696-1.008-.32 0-.66.2-1.02.6-.36.4-.692.912-.996 1.536-.672 1.44-1.008 2.888-1.008 4.344 0 .8.152 1.38.456 1.74.304.36.792.54 1.464.54.928 0 1.76-.384 2.496-1.152.208-.24.368-.496.48-.768.608.32.912.92.912 1.8 0 .896-.496 1.64-1.488 2.232-1.024.608-2.352.912-3.984.912-3.248 0-4.872-1.72-4.872-5.16 0-2.512.712-4.488 2.136-5.928 1.376-1.408 3.328-2.112 5.856-2.112s3.792.912 3.792 2.736zm16.224.024c0 6.816-3.696 10.224-11.088 10.224-1.184 0-2.752-.144-4.704-.432l2.688-14.184c.128-.64.232-1.144.312-1.512 2.432-.176 4.188-.264 5.268-.264s2.116.112 3.108.336c.992.224 1.816.584 2.472 1.08 1.296.976 1.944 2.56 1.944 4.752zm-4.944-.888c0-2.384-.856-3.576-2.568-3.576h-.24c-.08 0-.16.008-.24.024l-2.472 12.888a.426.426 0 0 0 .192.048h.192c.592 0 1.196-.184 1.812-.552.616-.368 1.164-.928 1.644-1.68 1.12-1.744 1.68-4.128 1.68-7.152zm7.2 10.128c-.368-.416-.636-.952-.804-1.608-.168-.656-.252-1.52-.252-2.592s.184-2.096.552-3.072a7.363 7.363 0 0 1 1.56-2.52c1.376-1.472 3.2-2.208 5.472-2.208.816 0 1.52.136 2.112.408l4.104-.408-1.776 9.36c-.048.192-.072.464-.072.816 0 .352.108.64.324.864.216.224.484.352.804.384-.16.544-.532.976-1.116 1.296-.584.32-1.204.48-1.86.48-.656 0-1.204-.124-1.644-.372-.44-.248-.724-.58-.852-.996-.256.4-.656.728-1.2.984-.544.256-1.18.384-1.908.384a6.397 6.397 0 0 1-1.98-.288 3.359 3.359 0 0 1-1.464-.912zm5.064-9.744c-.176.288-.344.676-.504 1.164-.16.488-.372 1.384-.636 2.688-.264 1.304-.396 2.42-.396 3.348 0 .928.072 1.528.216 1.8.144.272.344.408.6.408.512 0 .956-.244 1.332-.732.376-.488.636-1.164.78-2.028l1.272-7.032c-.336-.288-.7-.432-1.092-.432-.392 0-.704.064-.936.192-.232.128-.444.336-.636.624zm16.536-2.256a5.6 5.6 0 0 1 1.536.192c.016-.064.04-.184.072-.36l.12-.744c.064-.32.144-.744.24-1.272l.384-1.896 4.776-.48-2.664 13.92a2.439 2.439 0 0 0-.024.384v.384c0 .352.088.66.264.924.176.264.408.396.696.396-.32.752-.968 1.288-1.944 1.608-.336.096-.74.144-1.212.144s-.924-.124-1.356-.372c-.432-.248-.712-.58-.84-.996-.256.416-.64.748-1.152.996-.512.248-1.14.372-1.884.372a6.832 6.832 0 0 1-2.04-.288c-.616-.192-1.116-.496-1.5-.912-.704-.816-1.056-2.152-1.056-4.008 0-2.4.704-4.328 2.112-5.784 1.408-1.472 3.232-2.208 5.472-2.208zm-.168 1.44c-.592 0-1.048.32-1.368.96-.32.64-.644 1.752-.972 3.336-.328 1.584-.492 3.088-.492 4.512 0 .976.288 1.464.864 1.464.512 0 .948-.256 1.308-.768.36-.512.612-1.192.756-2.04l1.296-7.032c-.336-.288-.8-.432-1.392-.432zm17.328 7.224c.4.272.6.708.6 1.308 0 .6-.152 1.092-.456 1.476a3.617 3.617 0 0 1-1.2.96 6.88 6.88 0 0 1-3.192.792c-1.104 0-1.98-.12-2.628-.36-.648-.24-1.188-.584-1.62-1.032-.848-.848-1.272-2.048-1.272-3.6 0-2.416.656-4.36 1.968-5.832 1.408-1.584 3.336-2.376 5.784-2.376 1.52 0 2.656.32 3.408.96.56.48.84 1.112.84 1.896 0 2.816-2.432 4.224-7.296 4.224-.064.416-.096.8-.096 1.152 0 .736.164 1.244.492 1.524.328.28.796.42 1.404.42.608 0 1.236-.14 1.884-.42.648-.28 1.108-.644 1.38-1.092zm-4.896-2.616c1.136 0 2.032-.352 2.688-1.056.656-.672.984-1.544.984-2.616 0-.368-.068-.652-.204-.852-.136-.2-.34-.3-.612-.3-.272 0-.524.052-.756.156-.232.104-.468.332-.708.684-.592.8-1.056 2.128-1.392 3.984z"/><path fill="#000" fill-rule="nonzero" d="M13.203 3.069a.41.41 0 0 1-.406.414.41.41 0 0 1-.407-.414.41.41 0 0 1 .407-.414.41.41 0 0 1 .406.414M11.17 3.897a.41.41 0 0 1-.407.413.41.41 0 0 1-.407-.413.41.41 0 0 1 .407-.414.41.41 0 0 1 .407.414M15.237 3.897a.41.41 0 0 1-.406.413.41.41 0 0 1-.407-.413.41.41 0 0 1 .407-.414.41.41 0 0 1 .406.414"/><path stroke="currentColor" stroke-linecap="round" stroke-linejoin="round" stroke-width="2" d="M12.797 25c4.067.008 10.093-10.916 11.549-15.472.82-2.568-.26-5.378-2.6-6.653C19.614 1.713 16.179 1 12.796 1 9.434 1 6.029 1.705 3.9 2.855 1.535 4.133.447 6.977 1.276 9.566 2.74 14.138 8.729 25 12.796 25z"/><path stroke="currentColor" stroke-linecap="round" stroke-linejoin="round" stroke-width="2" d="M23.388 11.986L1.05 7.062a5.77 5.77 0 0 0 .226 2.504c.1.31.22.65.36 1.012l20.255 4.465a46.4 46.4 0 0 0 1.497-3.057z"/></g></svg>