<?xml version="1.0" encoding="UTF-8"?>
<svg width="328px" height="31px" viewBox="0 0 328 31" version="1.1" xmlns="http://www.w3.org/2000/svg" xmlns:xlink="http://www.w3.org/1999/xlink">
    <!-- Generator: Sketch 50 (54983) - http://www.bohemiancoding.com/sketch -->
    <title>joseph McDade</title>
    <desc>Created with Sketch.</desc>
    <defs></defs>
    <g id="Page-1" stroke="none" stroke-width="1" fill="none" fill-rule="evenodd">
        <g id="Desktop-HD" transform="translate(-554.000000, -110.000000)" fill="#FFFEBE">
            <path d="M554.16,137.72 C554,137.44 554,137.4 554,137.36 C554,137.2 554.16,137.04 554.32,136.88 L555.72,135.56 C555.84,135.44 555.96,135.36 556.08,135.36 C556.2,135.36 556.28,135.4 556.4,135.48 C557.6,136.28 558,136.84 559.52,136.84 C561.16,136.84 563.04,135.52 563.04,133.28 L563.04,111.56 C563.04,111.28 563.16,111.04 563.6,110.96 L565.72,110.96 C566.16,110.96 566.36,111.28 566.36,111.6 L566.36,133.28 C566.36,137.44 562.96,140.08 559.52,140.08 C557.4,140.08 555.4,139.36 554.16,137.72 Z M584.92,110.48 C593.04,110.48 599.68,117.12 599.68,125.24 C599.68,133.36 593.04,140 584.92,140 C576.76,140 570.16,133.36 570.16,125.24 C570.16,117.12 576.76,110.48 584.92,110.48 Z M584.92,136.76 C591.24,136.76 596.4,131.56 596.4,125.24 C596.4,118.88 591.24,113.72 584.92,113.72 C578.56,113.72 573.4,118.88 573.4,125.24 C573.4,131.56 578.56,136.76 584.92,136.76 Z M608.6,115.76 C608.36,116 607,118.12 607,119.68 C607,120.72 607.36,121.8 608.08,122.76 C610.04,125.36 612.4,127.24 612.4,131.12 C612.4,135.76 608.8,139.88 603.96,140.16 C603.52,140.16 603.32,139.84 603.32,139.44 L603.32,137.68 C603.32,137.32 603.6,137.08 603.96,137.04 C606.8,136.68 609.28,133.64 609.28,130.84 C609.28,127.6 605.92,125.76 604.64,123.16 C604.04,121.96 603.76,120.72 603.76,119.52 C603.76,114.96 607.52,110.68 612.4,110.44 C612.84,110.44 613.04,110.76 613.04,111.16 L613.04,113 C613.04,113.4 612.76,113.56 612.4,113.6 C610.88,113.8 609.6,114.64 608.6,115.76 Z M618.16,140 C617.72,140 617.52,139.8 617.52,139.36 L617.52,111.92 C617.52,111.52 617.76,111.36 618.16,111.36 L637.08,111.36 C637.48,111.36 637.68,111.56 637.68,111.96 L637.68,113.96 C637.68,114.44 637.48,114.68 637.04,114.68 L620.88,114.68 L620.88,119.48 L633.72,119.48 C634.08,119.48 634.32,119.8 634.32,120.16 L634.32,122.16 C634.32,122.52 634.08,122.84 633.72,122.84 L620.88,122.84 L620.88,127.8 L633.72,127.8 C634.08,127.8 634.32,128.08 634.32,128.44 L634.32,130.48 C634.32,130.8 634.08,131.16 633.72,131.16 L620.88,131.16 L620.88,136.68 L636.92,136.68 C637.32,136.68 637.64,136.92 637.64,137.36 L637.64,139.32 C637.64,139.76 637.4,140 636.96,140 L618.16,140 Z M644.04,111.36 L653.72,111.36 C658.92,111.36 662.24,115.32 662.24,120.24 C662.24,124.84 658.84,129.36 653.56,129.36 L644.8,129.36 L644.8,139.4 C644.8,139.8 644.6,140 644.16,140 L642.12,140 C641.68,140 641.48,139.8 641.48,139.4 L641.48,126.76 C641.48,126.36 641.76,126.08 642.12,126.08 L653.68,126.12 C656.56,125.92 659,123.24 659,120.4 C659,117.44 656.52,114.64 653.48,114.64 L644.04,114.64 C643.64,114.64 643.4,114.36 643.4,114.04 L643.4,112.04 C643.4,111.64 643.68,111.36 644.04,111.36 Z M686.48,111.52 C686.6,111.4 686.76,111.36 686.96,111.36 L688.96,111.36 C689.32,111.36 689.64,111.6 689.64,111.96 L689.64,139.4 C689.64,139.84 689.36,140 688.96,140 L686.96,140 C686.52,140 686.32,139.8 686.32,139.4 L686.32,131.16 L669.36,131.16 L669.36,139.4 C669.36,139.8 669.12,140 668.68,140 L666.64,140 C666.24,140 666.04,139.8 666.04,139.4 L666.04,111.96 C666.04,111.56 666.32,111.36 666.64,111.36 L668.72,111.36 C669.04,111.36 669.36,111.6 669.36,111.96 L669.36,119.52 L686.32,119.52 L686.32,111.96 C686.32,111.8 686.36,111.64 686.48,111.52 Z M686.32,127.8 L686.32,122.84 L669.36,122.84 L669.36,127.8 L686.32,127.8 Z M725.96,121.12 L729.8,111.84 C730,111.4 730.16,111.36 730.6,111.36 L731.88,111.36 C732.32,111.36 732.48,111.4 732.64,111.84 L744,139.12 C744.04,139.24 744.08,139.36 744.08,139.48 C744.08,139.8 743.84,140 743.44,140 L741.4,140 C740.6,140 740.52,139.44 739.76,137.44 L731.24,116.52 L722.72,137.44 C721.92,139.44 721.88,140 721.08,140 L719.04,140 C718.6,140 718.36,139.8 718.36,139.48 C718.36,139.36 718.4,139.24 718.44,139.12 L724.24,125.24 C723.04,122.32 721.84,119.4 720.72,116.48 L712.2,137.44 C711.4,139.44 711.32,140 710.56,140 L708.52,140 C708.08,140 707.84,139.8 707.84,139.48 C707.84,139.36 707.84,139.24 707.92,139.12 L719.28,111.8 C719.44,111.44 719.64,111.36 720.04,111.36 L721.32,111.36 C721.76,111.36 721.92,111.36 722.12,111.84 L725.96,121.12 Z M749.88,132.72 C748.12,129.72 747.52,126.16 748.08,122.72 C748.92,117.84 752.28,113.64 756.88,111.68 C761.64,109.68 767.16,110.28 771.32,113.32 C771.76,113.64 771.84,113.84 771.64,114.2 L770.64,115.84 C770.32,116.32 769.92,116.44 769.52,116.08 C767.68,114.64 765.4,114.04 763.08,113.88 C758.44,113.88 754.04,116.52 752.12,120.84 C750.12,125.36 751.36,130.84 755.2,134 C759,137.2 764.52,137.44 769.52,134.28 C769.96,134 770.16,133.96 770.48,134.48 C770.48,134.48 771.56,136.28 771.6,136.36 C771.8,136.72 771.52,137 771.2,137.24 C767.84,139.72 763.48,140.56 759.4,139.64 C755.4,138.76 751.92,136.24 749.88,132.72 Z M776.2,140 C775.84,140 775.56,139.84 775.56,139.44 L775.56,112.04 C775.56,111.6 775.76,111.36 776.2,111.36 L785.4,111.36 C793.32,111.36 799.84,117.64 799.84,125.72 C799.84,133.96 792.96,140 785.4,140 L776.2,140 Z M778.84,114.64 L778.84,136.72 L785.28,136.72 C791.68,136.72 796.52,131.64 796.52,125.4 C796.52,119 791.4,114.64 785.4,114.64 L778.84,114.64 Z M817.4,111.84 C817.4,111.84 829.16,139 829.16,139.04 C829.28,139.32 829.28,139.4 829.28,139.52 C829.28,139.84 829.04,140 828.6,140 L804.4,140 C803.96,140 803.64,139.76 803.64,139.4 C803.64,139.28 803.64,139.16 803.72,139.04 L815.64,111.84 C815.84,111.44 816.04,111.32 816.48,111.32 L816.6,111.32 C817.12,111.32 817.2,111.44 817.4,111.84 Z M816.52,117.56 L808.4,136.6 L824.6,136.6 L816.52,117.56 Z M833.72,140 C833.36,140 833.08,139.84 833.08,139.44 L833.08,112.04 C833.08,111.6 833.28,111.36 833.72,111.36 L842.92,111.36 C850.84,111.36 857.36,117.64 857.36,125.72 C857.36,133.96 850.48,140 842.92,140 L833.72,140 Z M836.36,114.64 L836.36,136.72 L842.8,136.72 C849.2,136.72 854.04,131.64 854.04,125.4 C854.04,119 848.92,114.64 842.92,114.64 L836.36,114.64 Z M861.8,140 C861.36,140 861.16,139.8 861.16,139.36 L861.16,111.92 C861.16,111.52 861.4,111.36 861.8,111.36 L880.72,111.36 C881.12,111.36 881.32,111.56 881.32,111.96 L881.32,113.96 C881.32,114.44 881.12,114.68 880.68,114.68 L864.52,114.68 L864.52,119.48 L877.36,119.48 C877.72,119.48 877.96,119.8 877.96,120.16 L877.96,122.16 C877.96,122.52 877.72,122.84 877.36,122.84 L864.52,122.84 L864.52,127.8 L877.36,127.8 C877.72,127.8 877.96,128.08 877.96,128.44 L877.96,130.48 C877.96,130.8 877.72,131.16 877.36,131.16 L864.52,131.16 L864.52,136.68 L880.56,136.68 C880.96,136.68 881.28,136.92 881.28,137.36 L881.28,139.32 C881.28,139.76 881.04,140 880.6,140 L861.8,140 Z" id="joseph-McDade"></path>
        </g>
    </g>
</svg>