<?xml version="1.0" encoding="utf-8"?>
<!-- Generator: Adobe Illustrator 19.2.1, SVG Export Plug-In . SVG Version: 6.00 Build 0)  -->
<svg version="1.1" xmlns="http://www.w3.org/2000/svg" xmlns:xlink="http://www.w3.org/1999/xlink" x="0px" y="0px" width="24px"
	 height="24px" viewBox="0 0 24 24" enable-background="new 0 0 24 24" xml:space="preserve">
<g id="Filled_Icons">
	<path d="M12,0C5.383,0,0,5.383,0,12s5.383,12,12,12s12-5.383,12-12S18.617,0,12,0z M5,15.165c0,0.276-0.224,0.5-0.5,0.5
		S4,15.441,4,15.165v-2.601c0-0.276,0.224-0.5,0.5-0.5s0.5,0.224,0.5,0.5V15.165z M7,15.031c0,0.276-0.224,0.5-0.5,0.5
		S6,15.307,6,15.031V11.44c0-0.276,0.224-0.5,0.5-0.5S7,11.164,7,11.44V15.031z M9,15.394c0,0.276-0.224,0.5-0.5,0.5
		S8,15.671,8,15.394V10.5C8,10.224,8.224,10,8.5,10S9,10.224,9,10.5V15.394z M11,15.5c0,0.276-0.224,0.5-0.5,0.5S10,15.776,10,15.5
		V9.626c0-0.276,0.224-0.5,0.5-0.5S11,9.35,11,9.626V15.5z M17.655,16h-4.956c-0.414-0.04-0.692-0.345-0.699-0.712V9.425
		c0.006-0.33,0.172-0.557,0.494-0.684c0.392-0.15,0.704-0.255,1.205-0.255c1.76,0,3.236,1.188,3.645,2.844
		c0.103-0.014,0.206-0.021,0.312-0.021c1.293,0,2.345,1.052,2.345,2.345C20,14.948,18.948,16,17.655,16z"/>
</g>
<g id="Frames-24px">
	<rect fill="none" width="24" height="24"/>
</g>
</svg>
