<svg xmlns="http://www.w3.org/2000/svg" width="32" height="32" viewbox="0 0 24 24" fill="currentColor"><path d="M12 0C5.383 0 0 5.383 0 12s5.383 12 12 12 12-5.383 12-12S18.617 0 12 0zM5 15.165a.5.5 0 0 1-1 0v-2.601a.5.5 0 0 1 1 0v2.601zm2-.134a.5.5 0 0 1-1 0V11.44a.5.5 0 0 1 1 0v3.591zm2 .363a.5.5 0 0 1-1 0V10.5a.5.5 0 0 1 1 0v4.894zm2 .106a.5.5 0 0 1-1 0V9.626a.5.5 0 0 1 1 0V15.5zm6.655.5h-4.956c-.414-.04-.692-.345-.699-.712V9.425c.006-.33.172-.557.494-.684.392-.15.704-.255 1.205-.255a3.735 3.735 0 0 1 3.645 2.844 2.348 2.348 0 0 1 2.657 2.324A2.35 2.35 0 0 1 17.655 16z"/></svg>
