<svg xmlns="http://www.w3.org/2000/svg" width="32" height="32" fill="currentColor">
    <path fill="currentColor" fill-rule="nonzero" d="M16,0 C7.17733333,0 0,7.17733333 0,16 C0,24.8226667 7.17733333,32 16,32 C24.8226667,32 32,24.8226667 32,16 C32,7.17733333 24.8226667,0 16,0 Z"/>
    <g fill="#ffffff">
      <path d="M9.00780642,0 C6.24650455,0 4,2.24627294 4,5.00747737 C4,7.76031335 6.24650455,10 9.00780642,10 C11.7605077,10 14,7.76031335 14,5.00747737 C14,2.24627294 11.7605077,0 9.00780642,0" transform="translate(10 10)"/>
      <path d="M0 14L3 14 3 0 0 0z" transform="translate(10 10)"/>
      <path d="M0 14L3 14 3 0 0 0z" transform="translate(10 10)"/>
    </g>
</svg>
