<svg width="1231" height="274" xmlns="http://www.w3.org/2000/svg"><path d="M-.03 266L70.56 8.6h81.51l17.94 147.03L242.55 8.6h68.25l7.02 192.66c1.04 25.48 7.8 42.12 20.28 49.92-2.86 5.2-8.45 10.27-16.77 15.21-8.32 4.94-18.005 7.41-29.055 7.41s-19.825-1.56-26.325-4.68c-6.5-3.12-11.57-7.28-15.21-12.48-6.5-9.36-9.75-23.01-9.75-40.95V95.18L164.16 266H115.8L88.5 90.89 44.82 266H-.03zm362.31-57.72c0-10.14 1.3-21.71 3.9-34.71L397.77 8.6h86.19l-31.2 166.14c-2.34 12.22-3.51 22.815-3.51 31.785 0 8.97 1.885 15.795 5.655 20.475 3.77 4.68 9.165 7.02 16.185 7.02s12.74-.91 17.16-2.73c4.42-1.82 8.45-4.94 12.09-9.36 7.02-8.84 12.74-24.57 17.16-47.19L549.09 8.6h58.89l-31.2 165.75c-7.28 36.92-20.93 62.79-40.95 77.61-19.5 14.56-48.49 21.84-86.97 21.84-28.86 0-50.96-6.24-66.3-18.72-13.52-10.92-20.28-26.52-20.28-46.8zm405.6-122.46c3.9-7.8 5.85-15.34 5.85-22.62 0-7.28-.39-12.935-1.17-16.965-.78-4.03-2.08-7.605-3.9-10.725-3.9-6.76-9.75-10.14-17.55-10.14-9.62 0-18.33 3.51-26.13 10.53-8.32 7.28-12.48 16.64-12.48 28.08 0 7.28 2.535 13.715 7.605 19.305S731.61 94.27 739.41 99.47c7.8 5.2 16.12 10.4 24.96 15.6 8.84 5.2 17.16 10.92 24.96 17.16 17.94 14.3 26.91 31.07 26.91 50.31 0 13-3.445 25.025-10.335 36.075-6.89 11.05-16.055 20.605-27.495 28.665-24.96 17.68-53.95 26.52-86.97 26.52-26.78 0-47.06-4.355-60.84-13.065-13.78-8.71-20.67-19.695-20.67-32.955 0-23.66 9.23-38.48 27.69-44.46 5.2-1.82 11.765-2.73 19.695-2.73s16.445 1.69 25.545 5.07c-4.16 10.66-6.24 20.8-6.24 30.42 0 20.8 7.41 31.2 22.23 31.2 9.62 0 18.395-3.51 26.325-10.53s11.895-14.495 11.895-22.425c0-7.93-2.535-14.755-7.605-20.475-5.07-5.72-11.375-10.855-18.915-15.405-7.54-4.55-15.665-9.035-24.375-13.455A131.336 131.336 0 0 1 661.8 149c-17.68-14.3-26.52-32.89-26.52-55.77 0-14.82 3.64-28.015 10.92-39.585 7.28-11.57 16.77-21.255 28.47-29.055C698.07 8.73 724.135.8 752.865.8c28.73 0 50.05 4.29 63.96 12.87 13.91 8.58 20.865 20.15 20.865 34.71 0 12.74-4.94 23.14-14.82 31.2-8.58 6.76-18.07 10.14-28.47 10.14-10.4 0-19.24-1.3-26.52-3.9zM841.59 266L891.12 8.6h85.8L926.61 266h-85.02zm347.49-80.73c6.76 4.94 10.14 12.675 10.14 23.205 0 10.53-2.275 19.5-6.825 26.91-4.55 7.41-11.245 13.975-20.085 19.695-18.98 12.22-45.045 18.33-78.195 18.33-33.15 0-58.76-8.645-76.83-25.935S990.18 206.2 990.18 175.52c0-43.42 11.31-81.64 33.93-114.66 17.16-24.44 41.08-41.86 71.76-52.26 15.86-5.2 31.59-7.8 47.19-7.8 15.6 0 28.21 1.04 37.83 3.12 9.62 2.08 18.07 5.2 25.35 9.36 15.86 9.1 23.79 20.93 23.79 35.49 0 13.26-6.24 24.83-18.72 34.71-11.44 8.84-21.84 13.26-31.2 13.26s-15.99-.65-19.89-1.95c1.04-9.36 1.56-17.095 1.56-23.205 0-6.11-.13-11.375-.39-15.795s-1.04-8.71-2.34-12.87c-2.6-9.62-7.865-14.43-15.795-14.43s-15.86 3.705-23.79 11.115-15.275 17.355-22.035 29.835c-15.34 28.34-23.01 59.28-23.01 92.82 0 16.12 4.55 28.795 13.65 38.025 9.1 9.23 23.4 13.845 42.9 13.845 14.56 0 28.73-4.81 42.51-14.43 5.98-4.16 11.18-8.97 15.6-14.43z" fill="#FFF" fill-rule="evenodd"/></svg>