<?xml version="1.0" encoding="UTF-8"?>
<svg width="1231px" height="274px" viewBox="0 0 1231 274" version="1.1" xmlns="http://www.w3.org/2000/svg" xmlns:xlink="http://www.w3.org/1999/xlink">
    <!-- Generator: Sketch 51.3 (57544) - http://www.bohemiancoding.com/sketch -->
    <title>Music Copy</title>
    <desc>Created with Sketch.</desc>
    <defs></defs>
    <g id="Page-1" stroke="none" stroke-width="1" fill="none" fill-rule="evenodd">
        <g id="Close-to-Final" transform="translate(-115.000000, -443.000000)" fill="#FFFFFF">
            <path d="M114.97,709 L185.56,451.6 L267.07,451.6 L285.01,598.63 L357.55,451.6 L425.8,451.6 L432.82,644.26 C433.860005,669.740127 440.619938,686.379961 453.1,694.18 C450.239986,699.380026 444.650042,704.449975 436.33,709.39 C428.009958,714.330025 418.325055,716.8 407.275,716.8 C396.224945,716.8 387.450032,715.240016 380.95,712.12 C374.449967,708.999984 369.380018,704.840026 365.74,699.64 C359.239967,690.279953 355.99,676.63009 355.99,658.69 L355.99,538.18 L279.16,709 L230.8,709 L203.5,533.89 L159.82,709 L114.97,709 Z M477.28,651.28 C477.28,641.139949 478.579987,629.570065 481.18,616.57 L512.77,451.6 L598.96,451.6 L567.76,617.74 C565.419988,629.960061 564.25,640.554955 564.25,649.525 C564.25,658.495045 566.134981,665.319977 569.905,670 C573.675019,674.680023 579.069965,677.02 586.09,677.02 C593.110035,677.02 598.829978,676.110009 603.25,674.29 C607.670022,672.469991 611.699982,669.350022 615.34,664.93 C622.360035,656.089956 628.079978,640.360113 632.5,617.74 L664.09,451.6 L722.98,451.6 L691.78,617.35 C684.499964,654.270185 670.8501,680.139926 650.83,694.96 C631.329902,709.520073 602.340192,716.8 563.86,716.8 C534.999856,716.8 512.900077,710.560062 497.56,698.08 C484.039932,687.159945 477.28,671.560101 477.28,651.28 Z M882.88,528.82 C886.780019,521.019961 888.73,513.480036 888.73,506.2 C888.73,498.919964 888.340004,493.26502 887.56,489.235 C886.779996,485.20498 885.480009,481.630016 883.66,478.51 C879.75998,471.749966 873.910039,468.37 866.11,468.37 C856.489952,468.37 847.780039,471.879965 839.98,478.9 C831.659958,486.180036 827.5,495.539943 827.5,506.98 C827.5,514.260036 830.034975,520.694972 835.105,526.285 C840.175025,531.875028 846.609961,537.269974 854.41,542.47 C862.210039,547.670026 870.529956,552.869974 879.37,558.07 C888.210044,563.270026 896.529961,568.989969 904.33,575.23 C922.27009,589.530071 931.24,606.299904 931.24,625.54 C931.24,638.540065 927.795034,650.564945 920.905,661.615 C914.014966,672.665055 904.850057,682.21996 893.41,690.28 C868.449875,707.960088 839.460165,716.8 806.44,716.8 C779.659866,716.8 759.380069,712.445044 745.6,703.735 C731.819931,695.024956 724.93,684.040066 724.93,670.78 C724.93,647.119882 734.159908,632.30003 752.62,626.32 C757.820026,624.499991 764.38496,623.59 772.315,623.59 C780.24504,623.59 788.759954,625.279983 797.86,628.66 C793.699979,639.320053 791.62,649.459952 791.62,659.08 C791.62,679.880104 799.029926,690.28 813.85,690.28 C823.470048,690.28 832.24496,686.770035 840.175,679.75 C848.10504,672.729965 852.07,665.25504 852.07,657.325 C852.07,649.39496 849.535025,642.570029 844.465,636.85 C839.394975,631.129971 833.090038,625.995023 825.55,621.445 C818.009962,616.894977 809.885044,612.410022 801.175,607.99 C792.464956,603.569978 784.340038,598.240031 776.8,592 C759.119912,577.699928 750.28,559.110114 750.28,536.23 C750.28,521.409926 753.919964,508.215058 761.2,496.645 C768.480036,485.074942 777.969941,475.390039 789.67,467.59 C813.070117,451.729921 839.134856,443.8 867.865,443.8 C896.595144,443.8 917.91493,448.089957 931.825,456.67 C945.73507,465.250043 952.69,476.819927 952.69,491.38 C952.69,504.120064 947.750049,514.51996 937.87,522.58 C929.289957,529.340034 919.800052,532.72 909.4,532.72 C898.999948,532.72 890.160036,531.420013 882.88,528.82 Z M956.59,709 L1006.12,451.6 L1091.92,451.6 L1041.61,709 L956.59,709 Z M1304.08,628.27 C1310.84003,633.210025 1314.22,640.944947 1314.22,651.475 C1314.22,662.005053 1311.94502,670.974963 1307.395,678.385 C1302.84498,685.795037 1296.15004,692.359971 1287.31,698.08 C1268.32991,710.300061 1242.26517,716.41 1209.115,716.41 C1175.96483,716.41 1150.35509,707.765086 1132.285,690.475 C1114.21491,673.184914 1105.18,649.200153 1105.18,618.52 C1105.18,575.099783 1116.48989,536.880165 1139.11,503.86 C1156.27009,479.419878 1180.18985,462.000052 1210.87,451.6 C1226.73008,446.399974 1242.45992,443.8 1258.06,443.8 C1273.66008,443.8 1286.26995,444.83999 1295.89,446.92 C1305.51005,449.00001 1313.95996,452.119979 1321.24,456.28 C1337.10008,465.380045 1345.03,477.209927 1345.03,491.77 C1345.03,505.030066 1338.79006,516.599951 1326.31,526.48 C1314.86994,535.320044 1304.47005,539.74 1295.11,539.74 C1285.74995,539.74 1279.12002,539.090006 1275.22,537.79 C1276.26001,528.429953 1276.78,520.695031 1276.78,514.585 C1276.78,508.474969 1276.65,503.210022 1276.39,498.79 C1276.13,494.369978 1275.35001,490.080021 1274.05,485.92 C1271.44999,476.299952 1266.18504,471.49 1258.255,471.49 C1250.32496,471.49 1242.39504,475.194963 1234.465,482.605 C1226.53496,490.015037 1219.19003,499.959938 1212.43,512.44 C1197.08992,540.780142 1189.42,571.719832 1189.42,605.26 C1189.42,621.380081 1193.96995,634.054954 1203.07,643.285 C1212.17005,652.515046 1226.4699,657.13 1245.97,657.13 C1260.53007,657.13 1274.69993,652.320048 1288.48,642.7 C1294.46003,638.539979 1299.65998,633.730027 1304.08,628.27 Z" id="Music-Copy"></path>
        </g>
    </g>
</svg>