<svg xmlns="http://www.w3.org/2000/svg" version="1.1" xmlns:xlink="http://www.w3.org/1999/xlink" xmlns:svgjs="http://svgjs.com/svgjs" viewBox="0 0 40 40" width="30" height="30"><g transform="matrix(1.6666666666666667,0,0,1.6666666666666667,0,0)"><path d="M17.5,11h-11c-0.552,0-1,0.448-1,1s0.448,1,1,1h11c0.552,0,1-0.448,1-1S18.052,11,17.5,11z M17.5,15h-11 c-0.552,0-1,0.448-1,1c0,0.552,0.448,1,1,1h11c0.552,0,1-0.448,1-1C18.5,15.448,18.052,15,17.5,15z M17.5,7h-11 c-0.552,0-1,0.448-1,1s0.448,1,1,1h11c0.552,0,1-0.448,1-1S18.052,7,17.5,7z M21,0H3C1.343,0,0,1.343,0,3v18c0,1.657,1.343,3,3,3 h18c1.657,0,3-1.343,3-3V3C24,1.343,22.657,0,21,0z M22,21c0,0.552-0.448,1-1,1H3c-0.552,0-1-0.448-1-1V3c0-0.552,0.448-1,1-1h18 c0.552,0,1,0.448,1,1V21z" stroke="none" fill="currentColor" stroke-width="0" stroke-linecap="round" stroke-linejoin="round"></path></g></svg>
